<mxfile host="app.diagrams.net" agent="Mozilla/5.0 (Windows NT 10.0; Win64; x64) AppleWebKit/537.36 (KHTML, like Gecko) Chrome/131.0.0.0 Safari/537.36 Edg/131.0.0.0" version="25.0.0">
  <diagram name="Page-1" id="58cdce13-f638-feb5-8d6f-7d28b1aa9fa0">
    <mxGraphModel dx="872" dy="435" grid="1" gridSize="10" guides="1" tooltips="1" connect="1" arrows="1" fold="1" page="1" pageScale="1" pageWidth="1100" pageHeight="850" background="none" math="0" shadow="0">
      <root>
        <mxCell id="0" />
        <mxCell id="1" parent="0" />
        <mxCell id="382b91b5511bd0f7-1" value="" style="ellipse;html=1;shape=startState;rounded=1;shadow=0;comic=0;labelBackgroundColor=none;fontFamily=Verdana;fontSize=12;align=center;direction=south;" parent="1" vertex="1">
          <mxGeometry x="181" y="181" width="30" height="30" as="geometry" />
        </mxCell>
        <mxCell id="382b91b5511bd0f7-6" value="&lt;b&gt;On Main Menu&lt;/b&gt;" style="rounded=1;whiteSpace=wrap;html=1;arcSize=24;shadow=0;comic=0;labelBackgroundColor=none;fontFamily=Verdana;fontSize=12;align=center;" parent="1" vertex="1">
          <mxGeometry x="291" y="166" width="120" height="60" as="geometry" />
        </mxCell>
        <mxCell id="2a3bc250acf0617d-9" style="edgeStyle=orthogonalEdgeStyle;html=1;labelBackgroundColor=none;endArrow=open;endSize=8;fontFamily=Verdana;fontSize=12;align=left;fontColor=default;" parent="1" source="382b91b5511bd0f7-1" target="382b91b5511bd0f7-6" edge="1">
          <mxGeometry relative="1" as="geometry" />
        </mxCell>
        <mxCell id="5QsQOhjldrLPA7mB9u9R-1" value="&lt;b&gt;On Recovery&lt;/b&gt;&lt;div&gt;&lt;b&gt;&lt;i&gt;Dream Guitar&lt;/i&gt;&lt;/b&gt;&lt;/div&gt;" style="rounded=1;whiteSpace=wrap;html=1;arcSize=24;shadow=0;comic=0;labelBackgroundColor=none;fontFamily=Verdana;fontSize=12;align=center;" vertex="1" parent="1">
          <mxGeometry x="291" y="304" width="120" height="60" as="geometry" />
        </mxCell>
        <mxCell id="5QsQOhjldrLPA7mB9u9R-2" style="edgeStyle=orthogonalEdgeStyle;html=1;labelBackgroundColor=none;endArrow=open;endSize=8;fontFamily=Verdana;fontSize=12;align=left;fontColor=default;exitX=0.5;exitY=1;exitDx=0;exitDy=0;" edge="1" parent="1" target="5QsQOhjldrLPA7mB9u9R-1" source="382b91b5511bd0f7-6">
          <mxGeometry relative="1" as="geometry">
            <mxPoint x="411" y="196" as="sourcePoint" />
          </mxGeometry>
        </mxCell>
        <mxCell id="5QsQOhjldrLPA7mB9u9R-3" value="&lt;b&gt;Create &lt;i style=&quot;&quot;&gt;Dream Guitar&lt;/i&gt;&lt;/b&gt;" style="text;html=1;align=center;verticalAlign=middle;resizable=0;points=[];autosize=1;strokeColor=none;fillColor=none;labelBackgroundColor=none;" vertex="1" parent="1">
          <mxGeometry x="30" y="181" width="140" height="30" as="geometry" />
        </mxCell>
        <mxCell id="5QsQOhjldrLPA7mB9u9R-4" value="&lt;b&gt;On Log In Menu&lt;/b&gt;" style="rounded=1;whiteSpace=wrap;html=1;arcSize=24;shadow=0;comic=0;labelBackgroundColor=none;fontFamily=Verdana;fontSize=12;align=center;" vertex="1" parent="1">
          <mxGeometry x="291" y="30" width="120" height="60" as="geometry" />
        </mxCell>
        <mxCell id="5QsQOhjldrLPA7mB9u9R-5" style="edgeStyle=orthogonalEdgeStyle;html=1;labelBackgroundColor=none;endArrow=open;endSize=8;fontFamily=Verdana;fontSize=12;align=left;fontColor=default;entryX=0.5;entryY=1;entryDx=0;entryDy=0;exitX=0.5;exitY=0;exitDx=0;exitDy=0;" edge="1" parent="1" source="382b91b5511bd0f7-6" target="5QsQOhjldrLPA7mB9u9R-4">
          <mxGeometry relative="1" as="geometry">
            <mxPoint x="421" y="206" as="sourcePoint" />
            <mxPoint x="501" y="206" as="targetPoint" />
          </mxGeometry>
        </mxCell>
        <mxCell id="5QsQOhjldrLPA7mB9u9R-24" style="edgeStyle=orthogonalEdgeStyle;rounded=0;orthogonalLoop=1;jettySize=auto;html=1;entryX=0.5;entryY=1;entryDx=0;entryDy=0;endArrow=open;endFill=0;labelBackgroundColor=none;fontColor=default;" edge="1" parent="1" source="5QsQOhjldrLPA7mB9u9R-6" target="5QsQOhjldrLPA7mB9u9R-8">
          <mxGeometry relative="1" as="geometry" />
        </mxCell>
        <mxCell id="5QsQOhjldrLPA7mB9u9R-27" style="edgeStyle=orthogonalEdgeStyle;rounded=0;orthogonalLoop=1;jettySize=auto;html=1;exitX=1;exitY=0.5;exitDx=0;exitDy=0;entryX=0;entryY=0.5;entryDx=0;entryDy=0;endArrow=open;endFill=0;labelBackgroundColor=none;fontColor=default;" edge="1" parent="1" source="5QsQOhjldrLPA7mB9u9R-6" target="5QsQOhjldrLPA7mB9u9R-15">
          <mxGeometry relative="1" as="geometry" />
        </mxCell>
        <mxCell id="5QsQOhjldrLPA7mB9u9R-6" value="&lt;b&gt;On Component Selection&lt;/b&gt;" style="rounded=1;whiteSpace=wrap;html=1;arcSize=24;shadow=0;comic=0;labelBackgroundColor=none;fontFamily=Verdana;fontSize=12;align=center;" vertex="1" parent="1">
          <mxGeometry x="490" y="166" width="120" height="60" as="geometry" />
        </mxCell>
        <mxCell id="5QsQOhjldrLPA7mB9u9R-8" value="&lt;b&gt;On Alternative Selection&lt;/b&gt;" style="rounded=1;whiteSpace=wrap;html=1;arcSize=24;shadow=0;comic=0;labelBackgroundColor=none;fontFamily=Verdana;fontSize=12;align=center;" vertex="1" parent="1">
          <mxGeometry x="490" y="30" width="120" height="60" as="geometry" />
        </mxCell>
        <mxCell id="5QsQOhjldrLPA7mB9u9R-25" style="edgeStyle=orthogonalEdgeStyle;rounded=0;orthogonalLoop=1;jettySize=auto;html=1;entryX=0.5;entryY=1;entryDx=0;entryDy=0;endArrow=open;endFill=0;labelBackgroundColor=none;fontColor=default;" edge="1" parent="1" source="5QsQOhjldrLPA7mB9u9R-15" target="5QsQOhjldrLPA7mB9u9R-18">
          <mxGeometry relative="1" as="geometry" />
        </mxCell>
        <mxCell id="5QsQOhjldrLPA7mB9u9R-26" style="edgeStyle=orthogonalEdgeStyle;rounded=0;orthogonalLoop=1;jettySize=auto;html=1;entryX=0.5;entryY=0;entryDx=0;entryDy=0;endArrow=open;endFill=0;labelBackgroundColor=none;fontColor=default;" edge="1" parent="1" source="5QsQOhjldrLPA7mB9u9R-15" target="5QsQOhjldrLPA7mB9u9R-20">
          <mxGeometry relative="1" as="geometry" />
        </mxCell>
        <mxCell id="5QsQOhjldrLPA7mB9u9R-15" value="&lt;b&gt;On Dream Guitar View&lt;/b&gt;" style="rounded=1;whiteSpace=wrap;html=1;arcSize=24;shadow=0;comic=0;labelBackgroundColor=none;fontFamily=Verdana;fontSize=12;align=center;" vertex="1" parent="1">
          <mxGeometry x="690" y="166" width="120" height="60" as="geometry" />
        </mxCell>
        <mxCell id="5QsQOhjldrLPA7mB9u9R-18" value="&lt;b&gt;On Publication Form&lt;/b&gt;" style="rounded=1;whiteSpace=wrap;html=1;arcSize=24;shadow=0;comic=0;labelBackgroundColor=none;fontFamily=Verdana;fontSize=12;align=center;" vertex="1" parent="1">
          <mxGeometry x="690" y="30" width="120" height="60" as="geometry" />
        </mxCell>
        <mxCell id="5QsQOhjldrLPA7mB9u9R-20" value="&lt;b&gt;On Luthier Overview???&lt;/b&gt;" style="rounded=1;whiteSpace=wrap;html=1;arcSize=24;shadow=0;comic=0;labelBackgroundColor=none;fontFamily=Verdana;fontSize=12;align=center;" vertex="1" parent="1">
          <mxGeometry x="690" y="304" width="120" height="60" as="geometry" />
        </mxCell>
        <mxCell id="5QsQOhjldrLPA7mB9u9R-22" style="edgeStyle=orthogonalEdgeStyle;html=1;labelBackgroundColor=none;endArrow=open;endSize=8;fontFamily=Verdana;fontSize=12;align=left;fontColor=default;exitX=1;exitY=0.5;exitDx=0;exitDy=0;entryX=0;entryY=0.5;entryDx=0;entryDy=0;" edge="1" parent="1" source="382b91b5511bd0f7-6" target="5QsQOhjldrLPA7mB9u9R-6">
          <mxGeometry relative="1" as="geometry">
            <mxPoint x="412" y="196" as="sourcePoint" />
            <mxPoint x="492" y="196" as="targetPoint" />
          </mxGeometry>
        </mxCell>
        <mxCell id="5QsQOhjldrLPA7mB9u9R-28" value="" style="ellipse;html=1;shape=endState;labelBackgroundColor=none;" vertex="1" parent="1">
          <mxGeometry x="890" y="181" width="30" height="30" as="geometry" />
        </mxCell>
        <mxCell id="5QsQOhjldrLPA7mB9u9R-29" style="edgeStyle=orthogonalEdgeStyle;rounded=0;orthogonalLoop=1;jettySize=auto;html=1;endArrow=open;endFill=0;exitX=1;exitY=0.5;exitDx=0;exitDy=0;labelBackgroundColor=none;fontColor=default;" edge="1" parent="1" source="5QsQOhjldrLPA7mB9u9R-15" target="5QsQOhjldrLPA7mB9u9R-28">
          <mxGeometry relative="1" as="geometry">
            <mxPoint x="811" y="196" as="sourcePoint" />
            <mxPoint x="891" y="196" as="targetPoint" />
          </mxGeometry>
        </mxCell>
      </root>
    </mxGraphModel>
  </diagram>
</mxfile>
